<svg xmlns="http://www.w3.org/2000/svg" width="360" height="360" viewBox="0 0 360 360">
<g transform="translate(0,0)" fill="rgba(74, 14, 10,0.78)"><ellipse cx="0" cy="-11" rx="4" ry="12" transform="rotate(0)"/><ellipse cx="0" cy="-11" rx="4" ry="12" transform="rotate(60)"/><ellipse cx="0" cy="-11" rx="4" ry="12" transform="rotate(120)"/><ellipse cx="0" cy="-11" rx="4" ry="12" transform="rotate(180)"/><ellipse cx="0" cy="-11" rx="4" ry="12" transform="rotate(240)"/><ellipse cx="0" cy="-11" rx="4" ry="12" transform="rotate(300)"/><circle r="3.4"/></g><g transform="translate(0,180)" fill="rgba(74, 14, 10,0.78)"><ellipse cx="0" cy="-11" rx="4" ry="12" transform="rotate(0)"/><ellipse cx="0" cy="-11" rx="4" ry="12" transform="rotate(60)"/><ellipse cx="0" cy="-11" rx="4" ry="12" transform="rotate(120)"/><ellipse cx="0" cy="-11" rx="4" ry="12" transform="rotate(180)"/><ellipse cx="0" cy="-11" rx="4" ry="12" transform="rotate(240)"/><ellipse cx="0" cy="-11" rx="4" ry="12" transform="rotate(300)"/><circle r="3.4"/></g><g transform="translate(0,360)" fill="rgba(74, 14, 10,0.78)"><ellipse cx="0" cy="-11" rx="4" ry="12" transform="rotate(0)"/><ellipse cx="0" cy="-11" rx="4" ry="12" transform="rotate(60)"/><ellipse cx="0" cy="-11" rx="4" ry="12" transform="rotate(120)"/><ellipse cx="0" cy="-11" rx="4" ry="12" transform="rotate(180)"/><ellipse cx="0" cy="-11" rx="4" ry="12" transform="rotate(240)"/><ellipse cx="0" cy="-11" rx="4" ry="12" transform="rotate(300)"/><circle r="3.4"/></g><g transform="translate(180,0)" fill="rgba(74, 14, 10,0.78)"><ellipse cx="0" cy="-11" rx="4" ry="12" transform="rotate(0)"/><ellipse cx="0" cy="-11" rx="4" ry="12" transform="rotate(60)"/><ellipse cx="0" cy="-11" rx="4" ry="12" transform="rotate(120)"/><ellipse cx="0" cy="-11" rx="4" ry="12" transform="rotate(180)"/><ellipse cx="0" cy="-11" rx="4" ry="12" transform="rotate(240)"/><ellipse cx="0" cy="-11" rx="4" ry="12" transform="rotate(300)"/><circle r="3.4"/></g><g transform="translate(180,180)" fill="rgba(74, 14, 10,0.78)"><ellipse cx="0" cy="-11" rx="4" ry="12" transform="rotate(0)"/><ellipse cx="0" cy="-11" rx="4" ry="12" transform="rotate(60)"/><ellipse cx="0" cy="-11" rx="4" ry="12" transform="rotate(120)"/><ellipse cx="0" cy="-11" rx="4" ry="12" transform="rotate(180)"/><ellipse cx="0" cy="-11" rx="4" ry="12" transform="rotate(240)"/><ellipse cx="0" cy="-11" rx="4" ry="12" transform="rotate(300)"/><circle r="3.4"/></g><g transform="translate(180,360)" fill="rgba(74, 14, 10,0.78)"><ellipse cx="0" cy="-11" rx="4" ry="12" transform="rotate(0)"/><ellipse cx="0" cy="-11" rx="4" ry="12" transform="rotate(60)"/><ellipse cx="0" cy="-11" rx="4" ry="12" transform="rotate(120)"/><ellipse cx="0" cy="-11" rx="4" ry="12" transform="rotate(180)"/><ellipse cx="0" cy="-11" rx="4" ry="12" transform="rotate(240)"/><ellipse cx="0" cy="-11" rx="4" ry="12" transform="rotate(300)"/><circle r="3.4"/></g><g transform="translate(360,0)" fill="rgba(74, 14, 10,0.78)"><ellipse cx="0" cy="-11" rx="4" ry="12" transform="rotate(0)"/><ellipse cx="0" cy="-11" rx="4" ry="12" transform="rotate(60)"/><ellipse cx="0" cy="-11" rx="4" ry="12" transform="rotate(120)"/><ellipse cx="0" cy="-11" rx="4" ry="12" transform="rotate(180)"/><ellipse cx="0" cy="-11" rx="4" ry="12" transform="rotate(240)"/><ellipse cx="0" cy="-11" rx="4" ry="12" transform="rotate(300)"/><circle r="3.4"/></g><g transform="translate(360,180)" fill="rgba(74, 14, 10,0.78)"><ellipse cx="0" cy="-11" rx="4" ry="12" transform="rotate(0)"/><ellipse cx="0" cy="-11" rx="4" ry="12" transform="rotate(60)"/><ellipse cx="0" cy="-11" rx="4" ry="12" transform="rotate(120)"/><ellipse cx="0" cy="-11" rx="4" ry="12" transform="rotate(180)"/><ellipse cx="0" cy="-11" rx="4" ry="12" transform="rotate(240)"/><ellipse cx="0" cy="-11" rx="4" ry="12" transform="rotate(300)"/><circle r="3.4"/></g><g transform="translate(360,360)" fill="rgba(74, 14, 10,0.78)"><ellipse cx="0" cy="-11" rx="4" ry="12" transform="rotate(0)"/><ellipse cx="0" cy="-11" rx="4" ry="12" transform="rotate(60)"/><ellipse cx="0" cy="-11" rx="4" ry="12" transform="rotate(120)"/><ellipse cx="0" cy="-11" rx="4" ry="12" transform="rotate(180)"/><ellipse cx="0" cy="-11" rx="4" ry="12" transform="rotate(240)"/><ellipse cx="0" cy="-11" rx="4" ry="12" transform="rotate(300)"/><circle r="3.4"/></g><g transform="translate(90,0)" fill="rgba(74, 14, 10,0.78)"><ellipse cx="0" cy="-7" rx="2.6" ry="8" transform="rotate(0)"/><ellipse cx="0" cy="-7" rx="2.6" ry="8" transform="rotate(60)"/><ellipse cx="0" cy="-7" rx="2.6" ry="8" transform="rotate(120)"/><ellipse cx="0" cy="-7" rx="2.6" ry="8" transform="rotate(180)"/><ellipse cx="0" cy="-7" rx="2.6" ry="8" transform="rotate(240)"/><ellipse cx="0" cy="-7" rx="2.6" ry="8" transform="rotate(300)"/><circle r="2.3"/></g><g transform="translate(270,0)" fill="rgba(74, 14, 10,0.78)"><ellipse cx="0" cy="-7" rx="2.6" ry="8" transform="rotate(0)"/><ellipse cx="0" cy="-7" rx="2.6" ry="8" transform="rotate(60)"/><ellipse cx="0" cy="-7" rx="2.6" ry="8" transform="rotate(120)"/><ellipse cx="0" cy="-7" rx="2.6" ry="8" transform="rotate(180)"/><ellipse cx="0" cy="-7" rx="2.6" ry="8" transform="rotate(240)"/><ellipse cx="0" cy="-7" rx="2.6" ry="8" transform="rotate(300)"/><circle r="2.3"/></g><g transform="translate(0,90)" fill="rgba(74, 14, 10,0.78)"><ellipse cx="0" cy="-7" rx="2.6" ry="8" transform="rotate(0)"/><ellipse cx="0" cy="-7" rx="2.6" ry="8" transform="rotate(60)"/><ellipse cx="0" cy="-7" rx="2.6" ry="8" transform="rotate(120)"/><ellipse cx="0" cy="-7" rx="2.6" ry="8" transform="rotate(180)"/><ellipse cx="0" cy="-7" rx="2.6" ry="8" transform="rotate(240)"/><ellipse cx="0" cy="-7" rx="2.6" ry="8" transform="rotate(300)"/><circle r="2.3"/></g><g transform="translate(0,270)" fill="rgba(74, 14, 10,0.78)"><ellipse cx="0" cy="-7" rx="2.6" ry="8" transform="rotate(0)"/><ellipse cx="0" cy="-7" rx="2.6" ry="8" transform="rotate(60)"/><ellipse cx="0" cy="-7" rx="2.6" ry="8" transform="rotate(120)"/><ellipse cx="0" cy="-7" rx="2.6" ry="8" transform="rotate(180)"/><ellipse cx="0" cy="-7" rx="2.6" ry="8" transform="rotate(240)"/><ellipse cx="0" cy="-7" rx="2.6" ry="8" transform="rotate(300)"/><circle r="2.3"/></g><g transform="translate(360,90)" fill="rgba(74, 14, 10,0.78)"><ellipse cx="0" cy="-7" rx="2.6" ry="8" transform="rotate(0)"/><ellipse cx="0" cy="-7" rx="2.6" ry="8" transform="rotate(60)"/><ellipse cx="0" cy="-7" rx="2.6" ry="8" transform="rotate(120)"/><ellipse cx="0" cy="-7" rx="2.6" ry="8" transform="rotate(180)"/><ellipse cx="0" cy="-7" rx="2.6" ry="8" transform="rotate(240)"/><ellipse cx="0" cy="-7" rx="2.6" ry="8" transform="rotate(300)"/><circle r="2.3"/></g><g transform="translate(360,270)" fill="rgba(74, 14, 10,0.78)"><ellipse cx="0" cy="-7" rx="2.6" ry="8" transform="rotate(0)"/><ellipse cx="0" cy="-7" rx="2.6" ry="8" transform="rotate(60)"/><ellipse cx="0" cy="-7" rx="2.6" ry="8" transform="rotate(120)"/><ellipse cx="0" cy="-7" rx="2.6" ry="8" transform="rotate(180)"/><ellipse cx="0" cy="-7" rx="2.6" ry="8" transform="rotate(240)"/><ellipse cx="0" cy="-7" rx="2.6" ry="8" transform="rotate(300)"/><circle r="2.3"/></g><g transform="translate(90,360)" fill="rgba(74, 14, 10,0.78)"><ellipse cx="0" cy="-7" rx="2.6" ry="8" transform="rotate(0)"/><ellipse cx="0" cy="-7" rx="2.6" ry="8" transform="rotate(60)"/><ellipse cx="0" cy="-7" rx="2.6" ry="8" transform="rotate(120)"/><ellipse cx="0" cy="-7" rx="2.6" ry="8" transform="rotate(180)"/><ellipse cx="0" cy="-7" rx="2.6" ry="8" transform="rotate(240)"/><ellipse cx="0" cy="-7" rx="2.6" ry="8" transform="rotate(300)"/><circle r="2.3"/></g><g transform="translate(270,360)" fill="rgba(74, 14, 10,0.78)"><ellipse cx="0" cy="-7" rx="2.6" ry="8" transform="rotate(0)"/><ellipse cx="0" cy="-7" rx="2.6" ry="8" transform="rotate(60)"/><ellipse cx="0" cy="-7" rx="2.6" ry="8" transform="rotate(120)"/><ellipse cx="0" cy="-7" rx="2.6" ry="8" transform="rotate(180)"/><ellipse cx="0" cy="-7" rx="2.6" ry="8" transform="rotate(240)"/><ellipse cx="0" cy="-7" rx="2.6" ry="8" transform="rotate(300)"/><circle r="2.3"/></g><path transform="translate(90,90) rotate(45)" d="M0,-26 C8,-14 10,-3 5,5 C1,12 -1,12 -5,5 C-10,-3 -8,-14 0,-26 Z" fill="rgba(74, 14, 10,0.78)"/><path transform="translate(270,90) rotate(45)" d="M0,-26 C8,-14 10,-3 5,5 C1,12 -1,12 -5,5 C-10,-3 -8,-14 0,-26 Z" fill="rgba(74, 14, 10,0.78)"/><path transform="translate(90,270) rotate(-45)" d="M0,-26 C8,-14 10,-3 5,5 C1,12 -1,12 -5,5 C-10,-3 -8,-14 0,-26 Z" fill="rgba(74, 14, 10,0.78)"/><path transform="translate(270,270) rotate(-45)" d="M0,-26 C8,-14 10,-3 5,5 C1,12 -1,12 -5,5 C-10,-3 -8,-14 0,-26 Z" fill="rgba(74, 14, 10,0.78)"/><circle cx="210" cy="180" r="2.4" fill="rgba(233, 161, 59,0.3)"/><circle cx="205.98076211353316" cy="195" r="2.4" fill="rgba(233, 161, 59,0.3)"/><circle cx="195" cy="205.98076211353316" r="2.4" fill="rgba(233, 161, 59,0.3)"/><circle cx="180" cy="210" r="2.4" fill="rgba(233, 161, 59,0.3)"/><circle cx="165" cy="205.98076211353316" r="2.4" fill="rgba(233, 161, 59,0.3)"/><circle cx="154.01923788646684" cy="195" r="2.4" fill="rgba(233, 161, 59,0.3)"/><circle cx="150" cy="180" r="2.4" fill="rgba(233, 161, 59,0.3)"/><circle cx="154.01923788646684" cy="165" r="2.4" fill="rgba(233, 161, 59,0.3)"/><circle cx="165" cy="154.01923788646684" r="2.4" fill="rgba(233, 161, 59,0.3)"/><circle cx="180" cy="150" r="2.4" fill="rgba(233, 161, 59,0.3)"/><circle cx="195" cy="154.01923788646684" r="2.4" fill="rgba(233, 161, 59,0.3)"/><circle cx="205.98076211353316" cy="165" r="2.4" fill="rgba(233, 161, 59,0.3)"/><circle cx="45" cy="45" r="1.7" fill="rgba(233, 161, 59,0.3)"/><circle cx="45" cy="135" r="1.7" fill="rgba(233, 161, 59,0.3)"/><circle cx="45" cy="225" r="1.7" fill="rgba(233, 161, 59,0.3)"/><circle cx="45" cy="315" r="1.7" fill="rgba(233, 161, 59,0.3)"/><circle cx="135" cy="45" r="1.7" fill="rgba(233, 161, 59,0.3)"/><circle cx="135" cy="135" r="1.7" fill="rgba(233, 161, 59,0.3)"/><circle cx="135" cy="225" r="1.7" fill="rgba(233, 161, 59,0.3)"/><circle cx="135" cy="315" r="1.7" fill="rgba(233, 161, 59,0.3)"/><circle cx="225" cy="45" r="1.7" fill="rgba(233, 161, 59,0.3)"/><circle cx="225" cy="135" r="1.7" fill="rgba(233, 161, 59,0.3)"/><circle cx="225" cy="225" r="1.7" fill="rgba(233, 161, 59,0.3)"/><circle cx="225" cy="315" r="1.7" fill="rgba(233, 161, 59,0.3)"/><circle cx="315" cy="45" r="1.7" fill="rgba(233, 161, 59,0.3)"/><circle cx="315" cy="135" r="1.7" fill="rgba(233, 161, 59,0.3)"/><circle cx="315" cy="225" r="1.7" fill="rgba(233, 161, 59,0.3)"/><circle cx="315" cy="315" r="1.7" fill="rgba(233, 161, 59,0.3)"/></svg>
